<svg width="392" height="92" viewBox="0 0 392 92" fill="none" xmlns="http://www.w3.org/2000/svg">
<rect width="392" height="92" rx="16" fill="#191933"/>
<path d="M52.06 64.127V47.962C52.06 46.193 52.548 44.668 53.585 43.448C54.561 42.228 55.903 41.557 57.611 41.557C60.661 41.557 62.186 43.692 62.186 47.84V64.127H71.031V47.657C71.031 42.472 69.872 38.751 67.676 36.555C65.48 34.359 62.552 33.261 59.014 33.261C56.757 33.261 54.866 33.749 53.341 34.603C51.755 35.457 50.352 36.921 49.01 38.934C47.302 35.213 44.374 33.322 40.226 33.322C36.444 33.322 33.821 34.725 32.296 37.409L31.686 33.993H24V64.127H32.784V48.023C32.784 46.193 33.272 44.668 34.248 43.326C35.224 42.045 36.505 41.374 38.213 41.374C41.629 41.374 43.398 43.57 43.398 47.962V64.127H52.06Z" fill="white"/>
<path d="M81.9343 33.932V64.127H73.1503V33.932H81.9343ZM72.5403 26.002C72.5403 27.588 73.0283 28.808 74.0653 29.662C75.1023 30.577 76.2613 31.004 77.5423 31.004C78.7623 31.004 79.9213 30.577 80.9583 29.662C81.9953 28.808 82.5443 27.588 82.5443 26.002C82.5443 24.477 81.9953 23.257 80.9583 22.342C79.9213 21.488 78.7623 21 77.5423 21C76.2613 21 75.1023 21.488 74.0653 22.342C73.0283 23.257 72.5403 24.477 72.5403 26.002Z" fill="white"/>
<path d="M115.034 64.127V48.145C115.034 38.263 110.825 33.261 102.468 33.261C98.3204 33.2 95.0874 34.725 92.7084 37.836L92.4034 33.993H84.4734V64.127H93.1354V48.572C93.1354 46.559 93.7454 44.79 95.0264 43.326C96.3074 41.862 97.9544 41.191 99.9674 41.191C104.115 41.191 106.189 43.57 106.189 48.206V64.127H115.034Z" fill="white"/>
<path d="M125.966 33.932V64.127H117.182V33.932H125.966ZM116.572 26.002C116.572 27.588 117.06 28.808 118.097 29.662C119.134 30.577 120.293 31.004 121.574 31.004C122.794 31.004 123.953 30.577 124.99 29.662C126.027 28.808 126.576 27.588 126.576 26.002C126.576 24.477 126.027 23.257 124.99 22.342C123.953 21.488 122.794 21 121.574 21C120.293 21 119.134 21.488 118.097 22.342C117.06 23.257 116.572 24.477 116.572 26.002Z" fill="white"/>
<path d="M156.565 64.127V47.962C156.565 46.193 157.053 44.668 158.09 43.448C159.066 42.228 160.408 41.557 162.116 41.557C165.166 41.557 166.691 43.692 166.691 47.84V64.127H175.536V47.657C175.536 42.472 174.377 38.751 172.181 36.555C169.985 34.359 167.057 33.261 163.519 33.261C161.262 33.261 159.371 33.749 157.846 34.603C156.26 35.457 154.857 36.921 153.515 38.934C151.807 35.213 148.879 33.322 144.731 33.322C140.949 33.322 138.326 34.725 136.801 37.409L136.191 33.993H128.505V64.127H137.289V48.023C137.289 46.193 137.777 44.668 138.753 43.326C139.729 42.045 141.01 41.374 142.718 41.374C146.134 41.374 147.903 43.57 147.903 47.962V64.127H156.565Z" fill="white"/>
<path d="M176.985 59.674C176.985 61.26 177.473 62.48 178.51 63.334C179.547 64.249 180.706 64.676 181.987 64.676C183.207 64.676 184.366 64.249 185.403 63.334C186.44 62.48 186.989 61.26 186.989 59.674C186.989 58.149 186.44 56.929 185.403 56.014C184.366 55.16 183.207 54.672 181.987 54.672C180.706 54.672 179.547 55.16 178.51 56.014C177.473 56.929 176.985 58.149 176.985 59.674Z" fill="#34A0A4"/>
</svg>
