<?xml version="1.0" encoding="UTF-8"?><svg id="Layer_2" xmlns="http://www.w3.org/2000/svg" viewBox="0 0 177.07 124.01"><defs><style>.cls-1{fill:#fff;fill-rule:evenodd;}</style></defs><g id="Layer_12"><path class="cls-1" d="M176.97,24.91l-9.99.48c.16,3.33.23,7.11-.97,9.89-1.31,3.12-3.96,4.7-5.97,5.47-3.84,1.48-8.5,1.35-12.1-.34-3.38-1.63-6.9-4.32-10.22-7.41-.57-.77-1.14-1.46-1.62-2.01-3.16-3.6-9.34-10.49-15.27-16.25C104.06-1.9,82.75-4.65,65.3,7.5c-5.52,3.7-10.67,8.75-15.65,14.09l-.05-.04c-.13.18-.28.36-.41.54-1.82,1.96-3.61,3.96-5.39,5.94-.81.91-1.62,1.81-2.46,2.73-.5.56-.95,1.11-1.37,1.66-3.49,3.32-7.22,6.23-10.78,7.95-3.66,1.71-8.32,1.85-12.16.37-2-.77-4.66-2.35-5.99-5.53-1.18-2.73-1.11-6.51-.95-9.83L.1,24.91c-.23,4.78-.18,9.82,1.73,14.24,2.08,4.97,6.19,8.85,11.59,10.94,2.93,1.13,6.08,1.69,9.24,1.69,3.73,0,7.47-.79,10.82-2.36,1.27-.61,2.51-1.33,3.74-2.1.88,2.01,2.26,4.05,4.15,6.18.62.69,1.25,1.39,1.88,2.09-2.13,2.97-4.46,5.61-7.06,7.39-3.17,2.18-6.7,2.88-10.21,2.02-4.17-1.02-7.88-4.09-10.17-8.42l-8.84,4.68c3.62,6.85,9.68,11.75,16.62,13.46,1.76.43,3.53.64,5.29.64,4.53,0,9-1.41,12.96-4.13,3.14-2.15,5.85-5,8.25-8.1,3.42,3.66,6.93,7.16,10.58,10.15-1.87,5.35-4.26,10.21-8.13,13.29-3.16,2.17-6.59,2.87-9.91,2.03-3.92-.99-7.41-4.05-9.57-8.38l-8.94,4.47c3.47,6.93,9.32,11.89,16.06,13.6,1.72.44,3.46.65,5.2.65,4.5,0,8.99-1.45,13.01-4.25l.21-.16c5.14-4.02,8.28-9.55,10.57-15.39,2.16,1.2,4.36,2.18,6.59,2.95-1.21,3.5-2.25,7.02-2.92,10.53-.42,1.89-.7,3.72-.97,5.49-.29,1.9-.57,3.7-.99,5.45l-.04.16c-.96,4.65-4.69,9.74-9.27,10.27-2.33.18-7.59.47-10.21-9.98l-9.7,2.43c3.73,14.9,12.95,17.58,19.09,17.58.58,0,1.14-.02,1.66-.06h.14c9.58-1.02,16.32-9.87,18.06-18.12.51-2.14.83-4.21,1.13-6.21.26-1.71.51-3.32.86-4.9l.03-.16c.64-3.39,1.71-6.86,3-10.42.9.06,1.81.1,2.71.1,1.12,0,2.23-.06,3.35-.16,1.29,3.58,2.37,7.07,3.02,10.48l.03.16c.35,1.59.6,3.2.86,4.91.31,2,.62,4.07,1.13,6.21,1.74,8.25,8.48,17.11,18.06,18.11h.14c.52.05,1.08.08,1.66.08,6.14,0,15.36-2.68,19.09-17.58l-9.7-2.43c-2.62,10.45-7.88,10.16-10.21,9.98-4.58-.52-8.31-5.62-9.27-10.27l-.04-.16c-.42-1.75-.7-3.55-.99-5.45-.27-1.77-.55-3.6-.97-5.49-.68-3.56-1.74-7.14-2.98-10.69,2.22-.78,4.43-1.75,6.59-2.92,2.29,5.89,5.45,11.48,10.62,15.52l.21.16c4.02,2.81,8.5,4.25,13.01,4.25,1.74,0,3.48-.22,5.2-.65,6.74-1.71,12.59-6.67,16.06-13.6l-8.94-4.47c-2.17,4.33-5.66,7.38-9.57,8.38-3.32.84-6.75.14-9.91-2.03-3.88-3.09-6.27-7.96-8.15-13.33,1.39-1.15,2.77-2.38,4.11-3.71,1.93-1.88,4.11-4.1,6.4-6.52,2.42,3.15,5.16,6.04,8.33,8.21,3.96,2.73,8.44,4.13,12.97,4.13,1.76,0,3.54-.21,5.29-.64,6.94-1.7,13-6.61,16.62-13.46l-8.84-4.68c-2.29,4.33-6,7.4-10.17,8.42-3.51.86-7.04.16-10.22-2.02-2.62-1.8-4.97-4.46-7.11-7.46.68-.76,1.36-1.53,2.03-2.3,1.38-1.59,2.9-3.61,3.93-5.79,1.18.74,2.38,1.42,3.6,2.01,3.32,1.55,7.03,2.33,10.75,2.33,3.16,0,6.32-.56,9.26-1.7,5.39-2.08,9.51-5.97,11.56-10.88,2.03-4.7,1.97-9.84,1.76-14.29ZM131.31,42.36c-.14.64-1.07,2.38-2.73,4.28-.01.02-.03.03-.04.05-.05-.09-.11-.19-.16-.28-.6.93-1.28,1.81-1.87,2.48-1.56,1.77-3.26,3.67-5,5.56,0,0,0,0,0,0-.14.15-.28.3-.42.45-2.55,2.76-5.18,5.5-7.6,7.85-12.89,12.79-28.83,15.37-42.64,5.75-4.12-2.76-8.11-6.59-11.97-10.69-1.02-1.07-2.04-2.15-3.06-3.25,0-.01.01-.02.02-.03-1.66-1.83-3.3-3.67-4.92-5.46-.8-.9-1.45-1.74-1.97-2.55-.05.09-.1.18-.15.26-3.05-3.43-3.53-4.8-1.47-7.57.64-.62,1.25-1.24,1.85-1.85.48-.71,1.06-1.44,1.74-2.21,1.88-2.08,3.78-4.22,5.72-6.34.07-.09.15-.19.21-.27.77-.83,1.55-1.65,2.33-2.46,3.77-3.98,7.66-7.67,11.67-10.36,4.91-3.42,10.09-5.29,15.3-5.71.07,0,.14-.01.21-.02.7-.05,1.39-.08,2.09-.08.01,0,.02,0,.03,0,.13,0,.26,0,.39.01.33,0,.67.01,1,.03.18,0,.35.02.53.04.32.02.64.05.96.08.13.01.26.03.39.05.39.05.79.1,1.18.16.05,0,.09.02.14.02,7.13,1.15,14.14,4.96,20.42,11.19,4.21,4.09,9.07,9.36,13.02,13.86.62.7,1.33,1.62,1.95,2.6.54.54,1.09,1.08,1.65,1.62.69,1.03,1.12,1.89,1.21,2.31v.48Z"/><path class="cls-1" d="M101.13,31.76c-6.47-6.42-14.47-7.72-21.4-2.89-3.52,2.36-6.84,6.26-10,9.75-2.31,2.61-2.35,4.35,0,6.98,3.16,3.49,6.48,7.39,10,9.75,6.93,4.83,14.93,3.53,21.4-2.89,2.11-2.05,4.55-4.7,6.54-6.96.74-.85,1.79-2.33,1.73-3.36v-.08c.06-1.03-.98-2.51-1.73-3.36-1.98-2.26-4.42-4.9-6.54-6.96Z"/></g></svg>