<svg width="496" height="496" viewBox="0 0 496 496" fill="none" xmlns="http://www.w3.org/2000/svg">
<rect width="495.7" height="495.7" rx="136" fill="#7B61FF"/>
<g clip-path="url(#clip0_19_43)">
<path d="M259.2 451C253 457.2 242.8 457.2 236.6 451L44.7 259.2C38.5 253 38.5 242.8 44.7 236.6L259.2 451Z" fill="white"/>
<path d="M101.088 202.822L89.7739 191.508L44.7317 236.55L56.0453 247.864L101.088 202.822Z" fill="white"/>
<path d="M67.1284 214.135L55.8148 225.449L270.278 439.912L281.592 428.599L67.1284 214.135Z" fill="white"/>
<path d="M89.6851 191.476L78.3715 202.79L292.835 417.253L304.148 405.94L89.6851 191.476Z" fill="white"/>
<path d="M451 259.2C457.2 253 457.2 242.8 451 236.6L259.2 44.7C253 38.5 242.8 38.5 236.6 44.7L451 259.2Z" fill="white"/>
<path d="M247.877 56.0015L236.564 44.6879L191.521 89.7301L202.835 101.044L247.877 56.0015Z" fill="white"/>
<path d="M428.646 281.555L439.959 270.242L225.496 55.7784L214.182 67.092L428.646 281.555Z" fill="white"/>
<path d="M406.018 304.222L417.332 292.908L202.869 78.4449L191.555 89.7585L406.018 304.222Z" fill="white"/>
<path d="M360.7 349.5L372 338.2L168.9 135C162.7 128.8 152.5 128.8 146.3 135L360.7 349.5Z" fill="white"/>
<path d="M157.576 146.344L146.263 135.03L123.777 157.516L135.091 168.829L157.576 146.344Z" fill="white"/>
<path d="M338.359 371.824L349.673 360.51L135.209 146.047L123.896 157.36L338.359 371.824Z" fill="white"/>
<path d="M112.313 168.888L100.999 180.202L315.462 394.665L326.776 383.351L112.313 168.888Z" fill="white"/>
<path d="M180.231 101.038L168.917 112.352L383.381 326.815L394.694 315.501L180.231 101.038Z" fill="white"/>
</g>
<defs>
<clipPath id="clip0_19_43">
<rect width="415.7" height="415.7" fill="white" transform="translate(40 40)"/>
</clipPath>
</defs>
</svg>
