<svg width="128" height="126" viewBox="0 0 128 126" fill="none" xmlns="http://www.w3.org/2000/svg">
<g clip-path="url(#clip0_2_24)">
<path d="M4.70195 56.6275L-0.00177002 61.3374L63.9917 125.415L68.6954 120.705L4.70195 56.6275Z" fill="#191933"/>
<path d="M11.2903 50.0163L6.58658 54.7262L70.58 118.803L75.2837 114.094L11.2903 50.0163Z" fill="#191933"/>
<path d="M81.8642 107.487L77.197 112.16L13.197 48.13C15.772 45.5516 20.0101 45.5516 22.5851 48.13L81.8642 107.487Z" fill="#191933"/>
<path d="M50.8204 10.4248L46.1166 15.1346L110.11 79.2119L114.814 74.502L50.8204 10.4248Z" fill="#191933"/>
<path d="M57.4087 3.81352L52.705 8.52341L116.698 72.6006L121.402 67.8908L57.4087 3.81352Z" fill="#191933"/>
<path d="M128 61.3443L123.333 66.0176L59.2791 1.93379C61.8542 -0.644598 66.0922 -0.644598 68.6672 1.93379L128 61.3443Z" fill="#191933"/>
<path d="M31.0933 30.2205L26.3896 34.9304L90.383 99.0076L95.0868 94.2977L31.0933 30.2205Z" fill="#191933"/>
<path d="M101.606 87.7191L96.9388 92.3924L32.9388 28.3086C35.5138 25.7302 39.7519 25.7302 42.3269 28.3086L101.606 87.7191Z" fill="#191933"/>
<path d="M24.467 36.7938L19.7633 41.5037L83.7567 105.581L88.4604 100.871L24.467 36.7938Z" fill="#191933"/>
<path d="M44.232 17.036L39.5283 21.7459L103.522 85.8231L108.225 81.1132L44.232 17.036Z" fill="#191933"/>
<path d="M13.1642 48.1346L0.00131226 61.3147L2.77044 64.0875L15.9333 50.9074L13.1642 48.1346Z" fill="#191933"/>
<path d="M59.2826 1.93186L46.1197 15.1119L48.8888 17.8847L62.0517 4.70461L59.2826 1.93186Z" fill="#191933"/>
<path d="M33.2384 28.0257L26.3346 34.9386L29.1037 37.7114L36.0076 30.7985L33.2384 28.0257Z" fill="#191933"/>
</g>
<defs>
<clipPath id="clip0_2_24">
<rect width="128" height="125.374" fill="white"/>
</clipPath>
</defs>
</svg>
