<svg width="416" height="416" viewBox="0 0 416 416" fill="none" xmlns="http://www.w3.org/2000/svg">
<g clip-path="url(#clip0_18_15)">
<path d="M219.2 411C213 417.2 202.8 417.2 196.6 411L4.7 219.2C-1.5 213 -1.5 202.8 4.7 196.6L219.2 411Z" fill="#191933"/>
<path d="M61.0875 162.822L49.7739 151.508L4.73164 196.55L16.0452 207.864L61.0875 162.822Z" fill="#191933"/>
<path d="M27.1284 174.135L15.8148 185.449L230.278 399.912L241.592 388.599L27.1284 174.135Z" fill="#191933"/>
<path d="M49.6851 151.476L38.3715 162.79L252.835 377.253L264.149 365.94L49.6851 151.476Z" fill="#191933"/>
<path d="M411 219.2C417.2 213 417.2 202.8 411 196.6L219.2 4.69999C213 -1.50001 202.8 -1.50001 196.6 4.69999L411 219.2Z" fill="#191933"/>
<path d="M207.877 16.0015L196.564 4.68787L151.521 49.7301L162.835 61.0437L207.877 16.0015Z" fill="#191933"/>
<path d="M388.646 241.555L399.959 230.242L185.496 15.7784L174.182 27.092L388.646 241.555Z" fill="#191933"/>
<path d="M366.018 264.222L377.332 252.908L162.868 38.4449L151.555 49.7585L366.018 264.222Z" fill="#191933"/>
<path d="M320.7 309.5L332 298.2L128.9 95C122.7 88.8 112.5 88.8 106.3 95L320.7 309.5Z" fill="#191933"/>
<path d="M117.576 106.344L106.263 95.0301L83.7771 117.516L95.0907 128.829L117.576 106.344Z" fill="#191933"/>
<path d="M298.359 331.824L309.673 320.51L95.2095 106.047L83.8959 117.36L298.359 331.824Z" fill="#191933"/>
<path d="M72.3125 128.888L60.9989 140.202L275.462 354.665L286.776 343.351L72.3125 128.888Z" fill="#191933"/>
<path d="M140.231 61.0379L128.917 72.3515L343.381 286.815L354.694 275.501L140.231 61.0379Z" fill="#191933"/>
</g>
<defs>
<clipPath id="clip0_18_15">
<rect width="415.7" height="415.7" fill="white"/>
</clipPath>
</defs>
</svg>
