<svg width="264" height="46" viewBox="0 0 264 46" fill="none" xmlns="http://www.w3.org/2000/svg">
<path d="M28.2287 44V27.835C28.2287 26.066 28.7167 24.541 29.7537 23.321C30.7297 22.101 32.0717 21.43 33.7797 21.43C36.8297 21.43 38.3547 23.565 38.3547 27.713V44H47.1997V27.53C47.1997 22.345 46.0407 18.624 43.8447 16.428C41.6487 14.232 38.7207 13.134 35.1827 13.134C32.9257 13.134 31.0347 13.622 29.5097 14.476C27.9237 15.33 26.5207 16.794 25.1787 18.807C23.4707 15.086 20.5427 13.195 16.3947 13.195C12.6127 13.195 9.98974 14.598 8.46474 17.282L7.85474 13.866H0.168739V44H8.95274V27.896C8.95274 26.066 9.44074 24.541 10.4167 23.199C11.3927 21.918 12.6737 21.247 14.3817 21.247C17.7977 21.247 19.5667 23.443 19.5667 27.835V44H28.2287ZM58.103 13.805V44H49.319V13.805H58.103ZM48.709 5.875C48.709 7.461 49.197 8.681 50.234 9.535C51.271 10.45 52.43 10.877 53.711 10.877C54.931 10.877 56.09 10.45 57.127 9.535C58.164 8.681 58.713 7.461 58.713 5.875C58.713 4.35 58.164 3.13 57.127 2.215C56.09 1.361 54.931 0.872999 53.711 0.872999C52.43 0.872999 51.271 1.361 50.234 2.215C49.197 3.13 48.709 4.35 48.709 5.875ZM91.2031 44V28.018C91.2031 18.136 86.9941 13.134 78.6371 13.134C74.4891 13.073 71.2561 14.598 68.8771 17.709L68.5721 13.866H60.6421V44H69.3041V28.445C69.3041 26.432 69.9141 24.663 71.1951 23.199C72.4761 21.735 74.1231 21.064 76.1361 21.064C80.2841 21.064 82.3581 23.443 82.3581 28.079V44H91.2031ZM92.924 13.866V29.848C92.924 39.73 97.072 44.61 105.49 44.61C109.638 44.732 112.932 43.207 115.25 40.035L115.555 44H123.485V13.866H114.823V29.421C114.823 31.495 114.152 33.203 112.871 34.667C111.59 36.131 109.943 36.863 107.991 36.802C103.843 36.802 101.769 34.484 101.769 29.787V13.866H92.924ZM154.12 44V27.835C154.12 26.066 154.608 24.541 155.645 23.321C156.621 22.101 157.963 21.43 159.671 21.43C162.721 21.43 164.246 23.565 164.246 27.713V44H173.091V27.53C173.091 22.345 171.932 18.624 169.736 16.428C167.54 14.232 164.612 13.134 161.074 13.134C158.817 13.134 156.926 13.622 155.401 14.476C153.815 15.33 152.412 16.794 151.07 18.807C149.362 15.086 146.434 13.195 142.286 13.195C138.504 13.195 135.881 14.598 134.356 17.282L133.746 13.866H126.06V44H134.844V27.896C134.844 26.066 135.332 24.541 136.308 23.199C137.284 21.918 138.565 21.247 140.273 21.247C143.689 21.247 145.458 23.443 145.458 27.835V44H154.12Z" fill="black"/>
<path d="M174.539 39.547C174.539 41.133 175.027 42.353 176.064 43.207C177.101 44.122 178.26 44.549 179.541 44.549C180.761 44.549 181.92 44.122 182.957 43.207C183.994 42.353 184.543 41.133 184.543 39.547C184.543 38.022 183.994 36.802 182.957 35.887C181.92 35.033 180.761 34.545 179.541 34.545C178.26 34.545 177.101 35.033 176.064 35.887C175.027 36.802 174.539 38.022 174.539 39.547ZM207.337 34.301C206.605 35.033 205.69 35.582 204.531 35.948C203.372 36.375 202.274 36.558 201.237 36.558C199.041 36.558 197.211 35.887 195.747 34.545C194.222 33.203 193.49 31.312 193.49 28.994C193.49 26.554 194.222 24.663 195.747 23.26C197.211 21.857 199.102 21.125 201.42 21.125C203.616 21.125 205.507 21.735 207.093 22.894L211.973 17.343C209.289 14.598 205.69 13.195 201.054 13.195C196.418 13.195 192.575 14.659 189.403 17.465C186.231 20.271 184.645 24.114 184.645 28.994C184.645 34.179 186.17 38.083 189.342 40.706C192.453 43.39 196.357 44.671 201.115 44.671C205.812 44.671 209.716 43.146 212.888 40.035L207.337 34.301ZM235.813 16.916C232.763 14.354 228.92 13.012 224.284 13.012C220.624 13.012 217.574 13.866 215.073 15.452C212.511 17.099 211.291 19.539 211.291 22.711C211.291 24.419 211.657 25.883 212.45 27.164C213.182 28.445 214.219 29.421 215.5 30.153C216.781 30.885 218.123 31.373 219.526 31.739C220.929 32.105 222.393 32.288 223.918 32.349C227.334 32.471 229.042 33.386 229.042 35.033C229.042 35.826 228.615 36.436 227.761 36.924C226.907 37.412 225.809 37.656 224.528 37.595C220.502 37.534 216.964 36.253 214.036 33.813L210.254 40.035C214.341 43.451 219.038 45.159 224.406 45.159C228.798 45.159 232.153 44.183 234.349 42.17C236.545 40.218 237.582 37.839 237.582 35.033C237.582 33.447 237.277 32.105 236.728 30.885C236.118 29.665 235.447 28.75 234.654 28.079C233.8 27.469 232.763 26.92 231.543 26.493C230.323 26.066 229.164 25.761 228.066 25.639C226.968 25.517 225.809 25.395 224.467 25.334C221.478 25.273 220.014 24.419 220.014 22.711C220.014 21.979 220.38 21.369 221.112 20.881C221.844 20.454 222.942 20.21 224.345 20.21C227.029 20.21 229.408 20.942 231.482 22.406L235.813 16.916ZM261.254 16.916C258.204 14.354 254.361 13.012 249.725 13.012C246.065 13.012 243.015 13.866 240.514 15.452C237.952 17.099 236.732 19.539 236.732 22.711C236.732 24.419 237.098 25.883 237.891 27.164C238.623 28.445 239.66 29.421 240.941 30.153C242.222 30.885 243.564 31.373 244.967 31.739C246.37 32.105 247.834 32.288 249.359 32.349C252.775 32.471 254.483 33.386 254.483 35.033C254.483 35.826 254.056 36.436 253.202 36.924C252.348 37.412 251.25 37.656 249.969 37.595C245.943 37.534 242.405 36.253 239.477 33.813L235.695 40.035C239.782 43.451 244.479 45.159 249.847 45.159C254.239 45.159 257.594 44.183 259.79 42.17C261.986 40.218 263.023 37.839 263.023 35.033C263.023 33.447 262.718 32.105 262.169 30.885C261.559 29.665 260.888 28.75 260.095 28.079C259.241 27.469 258.204 26.92 256.984 26.493C255.764 26.066 254.605 25.761 253.507 25.639C252.409 25.517 251.25 25.395 249.908 25.334C246.919 25.273 245.455 24.419 245.455 22.711C245.455 21.979 245.821 21.369 246.553 20.881C247.285 20.454 248.383 20.21 249.786 20.21C252.47 20.21 254.849 20.942 256.923 22.406L261.254 16.916Z" fill="#5F41F5"/>
</svg>
