<svg width="163" height="44" viewBox="0 0 163 44" fill="none" xmlns="http://www.w3.org/2000/svg">
<path d="M28.06 43.127V26.962C28.06 25.193 28.548 23.668 29.585 22.448C30.561 21.228 31.903 20.557 33.611 20.557C36.661 20.557 38.186 22.692 38.186 26.84V43.127H47.031V26.657C47.031 21.472 45.872 17.751 43.676 15.555C41.48 13.359 38.552 12.261 35.014 12.261C32.757 12.261 30.866 12.749 29.341 13.603C27.755 14.457 26.352 15.921 25.01 17.934C23.302 14.213 20.374 12.322 16.226 12.322C12.444 12.322 9.821 13.725 8.296 16.409L7.686 12.993H0V43.127H8.784V27.023C8.784 25.193 9.272 23.668 10.248 22.326C11.224 21.045 12.505 20.374 14.213 20.374C17.629 20.374 19.398 22.57 19.398 26.962V43.127H28.06Z" fill="white"/>
<path d="M57.9343 12.932V43.127H49.1503V12.932H57.9343ZM48.5403 5.002C48.5403 6.588 49.0283 7.808 50.0653 8.662C51.1023 9.577 52.2613 10.004 53.5423 10.004C54.7623 10.004 55.9213 9.577 56.9583 8.662C57.9953 7.808 58.5443 6.588 58.5443 5.002C58.5443 3.477 57.9953 2.257 56.9583 1.342C55.9213 0.487997 54.7623 0 53.5423 0C52.2613 0 51.1023 0.487997 50.0653 1.342C49.0283 2.257 48.5403 3.477 48.5403 5.002Z" fill="white"/>
<path d="M91.0344 43.127V27.145C91.0344 17.263 86.8254 12.261 78.4684 12.261C74.3204 12.2 71.0874 13.725 68.7084 16.836L68.4034 12.993H60.4734V43.127H69.1354V27.572C69.1354 25.559 69.7454 23.79 71.0264 22.326C72.3074 20.862 73.9544 20.191 75.9674 20.191C80.1154 20.191 82.1894 22.57 82.1894 27.206V43.127H91.0344Z" fill="white"/>
<path d="M101.966 12.932V43.127H93.1823V12.932H101.966ZM92.5723 5.002C92.5723 6.588 93.0603 7.808 94.0973 8.662C95.1343 9.577 96.2933 10.004 97.5743 10.004C98.7943 10.004 99.9533 9.577 100.99 8.662C102.027 7.808 102.576 6.588 102.576 5.002C102.576 3.477 102.027 2.257 100.99 1.342C99.9533 0.487997 98.7943 0 97.5743 0C96.2933 0 95.1343 0.487997 94.0973 1.342C93.0603 2.257 92.5723 3.477 92.5723 5.002Z" fill="white"/>
<path d="M132.565 43.127V26.962C132.565 25.193 133.053 23.668 134.09 22.448C135.066 21.228 136.408 20.557 138.116 20.557C141.166 20.557 142.691 22.692 142.691 26.84V43.127H151.536V26.657C151.536 21.472 150.377 17.751 148.181 15.555C145.985 13.359 143.057 12.261 139.519 12.261C137.262 12.261 135.371 12.749 133.846 13.603C132.26 14.457 130.857 15.921 129.515 17.934C127.807 14.213 124.879 12.322 120.731 12.322C116.949 12.322 114.326 13.725 112.801 16.409L112.191 12.993H104.505V43.127H113.289V27.023C113.289 25.193 113.777 23.668 114.753 22.326C115.729 21.045 117.01 20.374 118.718 20.374C122.134 20.374 123.903 22.57 123.903 26.962V43.127H132.565Z" fill="white"/>
<path d="M152.985 38.674C152.985 40.26 153.473 41.48 154.51 42.334C155.547 43.249 156.706 43.676 157.987 43.676C159.207 43.676 160.366 43.249 161.403 42.334C162.44 41.48 162.989 40.26 162.989 38.674C162.989 37.149 162.44 35.929 161.403 35.014C160.366 34.16 159.207 33.672 157.987 33.672C156.706 33.672 155.547 34.16 154.51 35.014C153.473 35.929 152.985 37.149 152.985 38.674Z" fill="#34A0A4"/>
</svg>
