<svg width="388" height="100" viewBox="0 0 388 100" fill="none" xmlns="http://www.w3.org/2000/svg">
<rect width="387.424" height="99.3198" rx="24" fill="#191933"/>
<path d="M114.505 24.0001H100.684C95.447 24.0782 90.3095 25.4461 85.7267 27.9827C81.1438 30.5192 77.2568 34.1462 74.4095 38.5428V29.157C74.4095 27.7893 73.8662 26.4776 72.8991 25.5105C71.932 24.5434 70.6203 24.0001 69.2526 24.0001H55.4061C47.0298 24.1221 39.0383 27.5371 33.1608 33.5063C27.2833 39.4755 23.9923 47.5189 24 55.896V70.1551C24 71.5228 24.5433 72.8345 25.5105 73.8016C26.4776 74.7687 27.7893 75.3121 29.157 75.3121C33.8756 75.3121 40.8891 75.3121 45.6336 75.3121C47.0013 75.3121 48.313 74.7687 49.2801 73.8016C50.2472 72.8345 50.7905 71.5228 50.7905 70.1551V57.2626C50.7905 56.5788 51.0622 55.9229 51.5458 55.4393C52.0293 54.9558 52.6852 54.6841 53.369 54.6841C54.0529 54.6841 54.7087 54.9558 55.1923 55.4393C55.6759 55.9229 55.9475 56.5788 55.9475 57.2626V70.1551C55.9475 71.5228 56.4909 72.8345 57.458 73.8016C58.4251 74.7687 59.7368 75.3121 61.1045 75.3121H90.8345C92.2023 75.3121 93.514 74.7687 94.4811 73.8016C95.4482 72.8345 95.9915 71.5228 95.9915 70.1551V57.2626C95.9915 56.5788 96.2632 55.9229 96.7467 55.4393C97.2303 54.9558 97.8862 54.6841 98.57 54.6841C99.2539 54.6841 99.9097 54.9558 100.393 55.4393C100.877 55.9229 101.149 56.5788 101.149 57.2626V70.1551C101.148 70.8523 101.288 71.5424 101.562 72.1837C101.836 72.825 102.236 73.4041 102.74 73.8862C103.244 74.3682 103.84 74.7431 104.493 74.9882C105.145 75.2333 105.841 75.3434 106.538 75.3121C109.107 75.0135 111.703 75.0135 114.273 75.3121C114.972 75.347 115.67 75.2395 116.326 74.9961C116.982 74.7526 117.581 74.3783 118.087 73.8959C118.594 73.4135 118.997 72.8331 119.272 72.19C119.547 71.5469 119.689 70.8546 119.688 70.1551V29.157C119.688 28.4776 119.554 27.8049 119.293 27.1776C119.032 26.5502 118.65 25.9806 118.168 25.5014C117.687 25.0222 117.115 24.6428 116.487 24.3852C115.858 24.1275 115.184 23.9967 114.505 24.0001V24.0001Z" fill="white"/>
<path d="M151.375 24H129.896C127.02 24 124.688 26.3319 124.688 29.2086V70.1034C124.688 72.98 127.02 75.312 129.896 75.312H151.375C154.252 75.312 156.584 72.98 156.584 70.1034V29.2086C156.584 26.3319 154.252 24 151.375 24Z" fill="white"/>
<path d="M220.631 24H211.942C210.574 24 209.262 24.5433 208.295 25.5104C207.328 26.4776 206.785 27.7893 206.785 29.157V38.5427C203.95 34.1522 200.076 30.5282 195.507 27.9916C190.937 25.455 185.813 24.084 180.587 24H166.741C165.373 24 164.061 24.5433 163.094 25.5104C162.127 26.4776 161.584 27.7893 161.584 29.157V70.155C161.583 70.8568 161.725 71.5514 162.002 72.1963C162.278 72.8412 162.684 73.4228 163.193 73.9056C163.702 74.3884 164.305 74.7621 164.964 75.0039C165.623 75.2458 166.324 75.3506 167.024 75.312C169.594 75.0114 172.19 75.0114 174.76 75.312C175.459 75.347 176.157 75.2395 176.813 74.996C177.468 74.7525 178.068 74.3782 178.574 73.8958C179.081 73.4134 179.484 72.833 179.759 72.1899C180.034 71.5468 180.176 70.8545 180.175 70.155V57.2626C180.175 56.5787 180.446 55.9228 180.93 55.4393C181.414 54.9557 182.069 54.6841 182.753 54.6841C183.437 54.6841 184.093 54.9557 184.577 55.4393C185.06 55.9228 185.332 56.5787 185.332 57.2626V70.155C185.332 71.5227 185.875 72.8344 186.842 73.8016C187.809 74.7687 189.121 75.312 190.489 75.312H220.631C221.999 75.312 223.311 74.7687 224.278 73.8016C225.245 72.8344 225.788 71.5227 225.788 70.155V29.157C225.788 27.7893 225.245 26.4776 224.278 25.5104C223.311 24.5433 221.999 24 220.631 24V24Z" fill="white"/>
<path d="M257.476 24H235.997C233.12 24 230.788 26.3319 230.788 29.2086V70.1034C230.788 72.98 233.12 75.312 235.997 75.312H257.476C260.352 75.312 262.684 72.98 262.684 70.1034V29.2086C262.684 26.3319 260.352 24 257.476 24Z" fill="white"/>
<path d="M331.94 24H318.094C316.726 24 315.414 24.5433 314.447 25.5104C313.48 26.4776 312.937 27.7893 312.937 29.157V38.5427C310.097 34.145 306.215 30.5165 301.636 27.9796C297.057 25.4426 291.922 24.0756 286.688 24H272.841C271.474 24 270.162 24.5433 269.195 25.5104C268.228 26.4776 267.684 27.7893 267.684 29.157V70.155C267.683 70.8568 267.825 71.5514 268.102 72.1963C268.379 72.8412 268.784 73.4228 269.294 73.9056C269.803 74.3884 270.405 74.7621 271.064 75.0039C271.723 75.2458 272.424 75.3506 273.125 75.312C275.695 75.0114 278.291 75.0114 280.86 75.312C281.557 75.3434 282.252 75.2332 282.905 74.9881C283.558 74.743 284.154 74.3681 284.658 73.8861C285.162 73.4041 285.562 72.8249 285.836 72.1836C286.109 71.5423 286.25 70.8522 286.249 70.155V57.2626C286.249 56.5787 286.521 55.9228 287.005 55.4393C287.488 54.9557 288.144 54.6841 288.828 54.6841C289.512 54.6841 290.168 54.9557 290.651 55.4393C291.135 55.9228 291.406 56.5787 291.406 57.2626V70.155C291.406 71.5227 291.95 72.8344 292.917 73.8016C293.884 74.7687 295.196 75.312 296.563 75.312H326.319C327.687 75.312 328.999 74.7687 329.966 73.8016C330.933 72.8344 331.476 71.5227 331.476 70.155V57.2626C331.476 56.5787 331.748 55.9228 332.231 55.4393C332.715 54.9557 333.371 54.6841 334.055 54.6841C334.739 54.6841 335.394 54.9557 335.878 55.4393C336.361 55.9228 336.633 56.5787 336.633 57.2626V70.155C336.633 71.5227 337.176 72.8344 338.144 73.8016C339.111 74.7687 340.422 75.312 341.79 75.312C346.535 75.312 353.522 75.312 358.267 75.312C359.634 75.312 360.946 74.7687 361.913 73.8016C362.88 72.8344 363.424 71.5227 363.424 70.155V55.896C363.431 47.5056 360.13 39.4508 354.235 33.4794C348.341 27.508 340.33 24.1018 331.94 24V24Z" fill="white"/>
</svg>
