<svg width="340" height="52" viewBox="0 0 340 52" fill="none" xmlns="http://www.w3.org/2000/svg">
<path d="M90.5051 6.44683e-05H76.6844C71.447 0.0782419 66.3095 1.44611 61.7267 3.98265C57.1438 6.51919 53.2568 10.1462 50.4095 14.5428V5.15705C50.4095 3.78933 49.8662 2.47763 48.8991 1.51051C47.932 0.543388 46.6203 6.44683e-05 45.2526 6.44683e-05H31.4061C23.0298 0.122058 15.0383 3.53711 9.16083 9.50632C3.2833 15.4755 -0.0076526 23.5189 1.33628e-05 31.896V46.1551C1.33628e-05 47.5228 0.543337 48.8345 1.51046 49.8016C2.47758 50.7687 3.78928 51.3121 5.157 51.3121C9.87564 51.3121 16.8891 51.3121 21.6336 51.3121C23.0013 51.3121 24.313 50.7687 25.2801 49.8016C26.2472 48.8345 26.7905 47.5228 26.7905 46.1551V33.2626C26.7905 32.5788 27.0622 31.9229 27.5458 31.4393C28.0293 30.9558 28.6852 30.6841 29.369 30.6841C30.0529 30.6841 30.7087 30.9558 31.1923 31.4393C31.6759 31.9229 31.9475 32.5788 31.9475 33.2626V46.1551C31.9475 47.5228 32.4909 48.8345 33.458 49.8016C34.4251 50.7687 35.7368 51.3121 37.1045 51.3121H66.8345C68.2023 51.3121 69.514 50.7687 70.4811 49.8016C71.4482 48.8345 71.9915 47.5228 71.9915 46.1551V33.2626C71.9915 32.5788 72.2632 31.9229 72.7467 31.4393C73.2303 30.9558 73.8862 30.6841 74.57 30.6841C75.2539 30.6841 75.9097 30.9558 76.3933 31.4393C76.8768 31.9229 77.1485 32.5788 77.1485 33.2626V46.1551C77.1478 46.8523 77.2885 47.5424 77.562 48.1837C77.8356 48.825 78.2363 49.4041 78.7401 49.8862C79.2438 50.3682 79.84 50.7431 80.4927 50.9882C81.1454 51.2333 81.8411 51.3434 82.5375 51.3121C85.1074 51.0135 87.7032 51.0135 90.273 51.3121C90.9716 51.347 91.67 51.2395 92.3258 50.9961C92.9815 50.7526 93.5809 50.3783 94.0874 49.8959C94.5939 49.4135 94.997 48.8331 95.2722 48.19C95.5473 47.5469 95.6887 46.8546 95.6879 46.1551V5.15705C95.6879 4.47765 95.5536 3.80494 95.2929 3.17758C95.0321 2.55022 94.6499 1.98057 94.1683 1.50136C93.6867 1.02215 93.1152 0.642833 92.4865 0.385191C91.8579 0.12755 91.1845 -0.00333253 90.5051 6.44683e-05V6.44683e-05Z" fill="white"/>
<path d="M127.375 0H105.896C103.02 0 100.688 2.33195 100.688 5.20855V46.1034C100.688 48.98 103.02 51.312 105.896 51.312H127.375C130.252 51.312 132.584 48.98 132.584 46.1034V5.20855C132.584 2.33195 130.252 0 127.375 0Z" fill="white"/>
<path d="M196.631 0H187.942C186.574 0 185.262 0.543324 184.295 1.51045C183.328 2.47757 182.785 3.78927 182.785 5.15698V14.5427C179.95 10.1522 176.076 6.52821 171.507 3.99162C166.937 1.45504 161.813 0.084048 156.587 0L142.741 0C141.373 0 140.061 0.543324 139.094 1.51045C138.127 2.47757 137.584 3.78927 137.584 5.15698V46.155C137.583 46.8568 137.725 47.5514 138.002 48.1963C138.278 48.8412 138.684 49.4228 139.193 49.9056C139.702 50.3884 140.305 50.7621 140.964 51.0039C141.623 51.2458 142.324 51.3506 143.024 51.312C145.594 51.0114 148.19 51.0114 150.76 51.312C151.459 51.347 152.157 51.2395 152.813 50.996C153.468 50.7525 154.068 50.3782 154.574 49.8958C155.081 49.4134 155.484 48.833 155.759 48.1899C156.034 47.5468 156.176 46.8545 156.175 46.155V33.2626C156.175 32.5787 156.446 31.9228 156.93 31.4393C157.414 30.9557 158.069 30.6841 158.753 30.6841C159.437 30.6841 160.093 30.9557 160.577 31.4393C161.06 31.9228 161.332 32.5787 161.332 33.2626V46.155C161.332 47.5227 161.875 48.8344 162.842 49.8016C163.809 50.7687 165.121 51.312 166.489 51.312H196.631C197.999 51.312 199.311 50.7687 200.278 49.8016C201.245 48.8344 201.788 47.5227 201.788 46.155V5.15698C201.788 3.78927 201.245 2.47757 200.278 1.51045C199.311 0.543324 197.999 0 196.631 0V0Z" fill="white"/>
<path d="M233.476 0H211.997C209.12 0 206.788 2.33195 206.788 5.20855V46.1034C206.788 48.98 209.12 51.312 211.997 51.312H233.476C236.352 51.312 238.684 48.98 238.684 46.1034V5.20855C238.684 2.33195 236.352 0 233.476 0Z" fill="white"/>
<path d="M307.94 0H294.094C292.726 0 291.414 0.543324 290.447 1.51045C289.48 2.47757 288.937 3.78927 288.937 5.15698V14.5427C286.097 10.145 282.215 6.51652 277.636 3.97956C273.057 1.44259 267.922 0.0756112 262.688 0L248.841 0C247.474 0 246.162 0.543324 245.195 1.51045C244.228 2.47757 243.684 3.78927 243.684 5.15698V46.155C243.683 46.8568 243.825 47.5514 244.102 48.1963C244.379 48.8412 244.784 49.4228 245.294 49.9056C245.803 50.3884 246.405 50.7621 247.064 51.0039C247.723 51.2458 248.424 51.3506 249.125 51.312C251.695 51.0114 254.291 51.0114 256.86 51.312C257.557 51.3434 258.252 51.2332 258.905 50.9881C259.558 50.743 260.154 50.3681 260.658 49.8861C261.162 49.4041 261.562 48.8249 261.836 48.1836C262.109 47.5423 262.25 46.8522 262.249 46.155V33.2626C262.249 32.5787 262.521 31.9228 263.005 31.4393C263.488 30.9557 264.144 30.6841 264.828 30.6841C265.512 30.6841 266.168 30.9557 266.651 31.4393C267.135 31.9228 267.406 32.5787 267.406 33.2626V46.155C267.406 47.5227 267.95 48.8344 268.917 49.8016C269.884 50.7687 271.196 51.312 272.563 51.312H302.319C303.687 51.312 304.999 50.7687 305.966 49.8016C306.933 48.8344 307.476 47.5227 307.476 46.155V33.2626C307.476 32.5787 307.748 31.9228 308.231 31.4393C308.715 30.9557 309.371 30.6841 310.055 30.6841C310.739 30.6841 311.394 30.9557 311.878 31.4393C312.361 31.9228 312.633 32.5787 312.633 33.2626V46.155C312.633 47.5227 313.176 48.8344 314.144 49.8016C315.111 50.7687 316.422 51.312 317.79 51.312C322.535 51.312 329.522 51.312 334.267 51.312C335.634 51.312 336.946 50.7687 337.913 49.8016C338.88 48.8344 339.424 47.5227 339.424 46.155V31.896C339.431 23.5056 336.13 15.4508 330.235 9.47937C324.341 3.50799 316.33 0.101822 307.94 0V0Z" fill="white"/>
</svg>
