<svg width="185" height="45" viewBox="0 0 185 45" fill="none" xmlns="http://www.w3.org/2000/svg">
<path d="M28.2183 44V27.835C28.2183 26.066 28.7063 24.541 29.7433 23.321C30.7193 22.101 32.0613 21.43 33.7693 21.43C36.8193 21.43 38.3443 23.565 38.3443 27.713V44H47.1893V27.53C47.1893 22.345 46.0303 18.624 43.8343 16.428C41.6383 14.232 38.7103 13.134 35.1723 13.134C32.9153 13.134 31.0243 13.622 29.4993 14.476C27.9133 15.33 26.5103 16.794 25.1683 18.807C23.4603 15.086 20.5323 13.195 16.3843 13.195C12.6023 13.195 9.9793 14.598 8.4543 17.282L7.8443 13.866H0.158302V44H8.9423V27.896C8.9423 26.066 9.4303 24.541 10.4063 23.199C11.3823 21.918 12.6633 21.247 14.3713 21.247C17.7873 21.247 19.5563 23.443 19.5563 27.835V44H28.2183ZM58.0926 13.805V44H49.3086V13.805H58.0926ZM48.6986 5.875C48.6986 7.461 49.1866 8.681 50.2236 9.535C51.2606 10.45 52.4196 10.877 53.7006 10.877C54.9206 10.877 56.0796 10.45 57.1166 9.535C58.1536 8.681 58.7026 7.461 58.7026 5.875C58.7026 4.35 58.1536 3.13 57.1166 2.215C56.0796 1.361 54.9206 0.872999 53.7006 0.872999C52.4196 0.872999 51.2606 1.361 50.2236 2.215C49.1866 3.13 48.6986 4.35 48.6986 5.875ZM91.1927 44V28.018C91.1927 18.136 86.9837 13.134 78.6267 13.134C74.4787 13.073 71.2457 14.598 68.8667 17.709L68.5617 13.866H60.6317V44H69.2937V28.445C69.2937 26.432 69.9037 24.663 71.1847 23.199C72.4657 21.735 74.1127 21.064 76.1257 21.064C80.2737 21.064 82.3477 23.443 82.3477 28.079V44H91.1927ZM92.9136 13.866V29.848C92.9136 39.73 97.0616 44.61 105.48 44.61C109.628 44.732 112.922 43.207 115.24 40.035L115.545 44H123.475V13.866H114.813V29.421C114.813 31.495 114.142 33.203 112.861 34.667C111.58 36.131 109.933 36.863 107.981 36.802C103.833 36.802 101.759 34.484 101.759 29.787V13.866H92.9136ZM154.109 44V27.835C154.109 26.066 154.597 24.541 155.634 23.321C156.61 22.101 157.952 21.43 159.66 21.43C162.71 21.43 164.235 23.565 164.235 27.713V44H173.08V27.53C173.08 22.345 171.921 18.624 169.725 16.428C167.529 14.232 164.601 13.134 161.063 13.134C158.806 13.134 156.915 13.622 155.39 14.476C153.804 15.33 152.401 16.794 151.059 18.807C149.351 15.086 146.423 13.195 142.275 13.195C138.493 13.195 135.87 14.598 134.345 17.282L133.735 13.866H126.049V44H134.833V27.896C134.833 26.066 135.321 24.541 136.297 23.199C137.273 21.918 138.554 21.247 140.262 21.247C143.678 21.247 145.447 23.443 145.447 27.835V44H154.109Z" fill="white"/>
<path d="M174.529 39.547C174.529 41.133 175.017 42.353 176.054 43.207C177.091 44.122 178.25 44.549 179.531 44.549C180.751 44.549 181.91 44.122 182.947 43.207C183.984 42.353 184.533 41.133 184.533 39.547C184.533 38.022 183.984 36.802 182.947 35.887C181.91 35.033 180.751 34.545 179.531 34.545C178.25 34.545 177.091 35.033 176.054 35.887C175.017 36.802 174.529 38.022 174.529 39.547Z" fill="#5F41F5"/>
</svg>
